<svg width="40" height="40" viewBox="0 0 40 40" fill="none" xmlns="http://www.w3.org/2000/svg">
<g clip-path="url(#clip0_626_324)">
<path d="M20 8.6977C13.3861 8.6977 8 13.1907 8 18.7442C8 21.3675 9.22796 23.907 11.4047 25.7768L10.2604 28.9303C9.98127 29.6002 10.1489 30.3535 10.6789 30.856C11.0138 31.163 11.4045 31.3025 11.8232 31.3025C12.1023 31.3025 12.4093 31.2188 12.6882 31.0792L17.0976 28.5118C18.0465 28.679 19.0232 28.7906 20 28.7906C26.6139 28.7906 32 24.2975 32 18.744C32 13.1905 26.6139 8.69751 20 8.69751L20 8.6977ZM20 26.5582C19.0791 26.5582 18.1862 26.4466 17.3208 26.2512L17.1813 26.2234C16.9021 26.1675 16.6232 26.1955 16.3721 26.3349L12.8558 28.3721L13.8046 25.7488C13.972 25.2744 13.8046 24.7719 13.4139 24.4649L13.3024 24.4373C11.3209 22.9304 10.2325 20.9211 10.2325 18.7443C10.2325 14.4467 14.614 10.9303 20 10.9303C25.3859 10.9303 29.7674 14.4465 29.7674 18.7443C29.7674 23.0418 25.3859 26.5582 20 26.5582L20 26.5582Z" fill="#003057"/>
<path d="M20 13.4419C19.3861 13.4419 18.8838 13.9441 18.8838 14.5581V19.0233C18.8838 19.6373 19.3861 20.1395 20 20.1395C20.614 20.1395 21.1162 19.6373 21.1162 19.0233V14.5583C21.1162 13.9443 20.614 13.4419 20 13.4419Z" fill="#003057"/>
<path d="M19.7768 21.2838C19.6931 21.2838 19.6372 21.3116 19.5535 21.3396C19.4976 21.3675 19.4139 21.3955 19.358 21.4512C19.3022 21.479 19.2465 21.5349 19.1906 21.5908C19.1348 21.6466 19.0791 21.7023 19.051 21.7582C19.0232 21.814 18.9673 21.8697 18.9395 21.9536C18.9117 22.0095 18.8836 22.0932 18.8836 22.1769C18.8838 22.2606 18.8838 22.2884 18.8838 22.3721C18.8838 22.6513 18.9954 22.9583 19.2187 23.1535C19.4139 23.3768 19.7209 23.4886 20.0001 23.4886C20.2792 23.4886 20.5862 23.377 20.7814 23.1537C21.0047 22.9583 21.1163 22.6513 21.1163 22.3721C21.1163 22.093 21.0047 21.786 20.7814 21.5907C20.5303 21.3118 20.1396 21.2001 19.7768 21.2838L19.7768 21.2838Z" fill="#003057"/>
</g>
<defs>
<clipPath id="clip0_626_324">
<rect width="24" height="24" fill="white" transform="translate(8 8)"/>
</clipPath>
</defs>
</svg>
