<svg width="40" height="40" viewBox="0 0 40 40" fill="none" xmlns="http://www.w3.org/2000/svg">
<g clip-path="url(#clip0_626_337)">
<path d="M16.2446 15.4894H8.75531C8.61917 15.4894 8.5 15.6085 8.5 15.7447C8.5 15.8808 8.61917 16 8.75531 16H16.2445C16.3806 16 16.4998 15.8808 16.4998 15.7447C16.4999 15.6085 16.3807 15.4894 16.2445 15.4894H16.2446Z" fill="#003057"/>
<path d="M14.1852 14.2467H8.7555C8.61935 14.2467 8.50018 14.3659 8.50018 14.502C8.50018 14.6382 8.61935 14.7573 8.7555 14.7573H14.1852C14.3214 14.7573 14.4405 14.6382 14.4405 14.502C14.4405 14.3659 14.3214 14.2467 14.1852 14.2467Z" fill="#003057"/>
<path d="M16.2448 12.9872H8.7555C8.61935 12.9872 8.50018 13.1064 8.50018 13.2425C8.50018 13.3787 8.61935 13.4979 8.7555 13.4979H16.2447C16.3808 13.4979 16.5 13.3787 16.5 13.2425C16.5 13.1063 16.3809 12.9872 16.2447 12.9872H16.2448Z" fill="#003057"/>
<path d="M14.1852 11.7446H8.7555C8.61935 11.7446 8.50018 11.8638 8.50018 11.9999C8.50018 12.1361 8.61935 12.2552 8.7555 12.2552H14.1852C14.3214 12.2552 14.4405 12.1361 14.4405 11.9999C14.4405 11.8638 14.3214 11.7446 14.1852 11.7446Z" fill="#003057"/>
<path d="M16.2448 10.5021H8.7555C8.61935 10.5021 8.50018 10.6212 8.50018 10.7574C8.50018 10.8935 8.61935 11.0127 8.7555 11.0127H16.2447C16.3808 11.0127 16.5 10.8935 16.5 10.7574C16.5 10.6212 16.3809 10.5021 16.2447 10.5021H16.2448Z" fill="#003057"/>
<path d="M14.1852 9.24261H8.7555C8.61935 9.24261 8.50018 9.36177 8.50018 9.49792C8.50018 9.63407 8.61935 9.75323 8.7555 9.75323H14.1852C14.3214 9.75323 14.4405 9.63407 14.4405 9.49792C14.4405 9.36177 14.3214 9.24261 14.1852 9.24261Z" fill="#003057"/>
<path d="M16.2448 7.99999H8.7555C8.61935 7.99999 8.50018 8.11916 8.50018 8.25531C8.50018 8.39145 8.61935 8.51062 8.7555 8.51062H16.2447C16.3808 8.51062 16.5 8.39145 16.5 8.25531C16.5 8.11916 16.3809 7.99999 16.2447 7.99999H16.2448Z" fill="#003057"/>
<path d="M31.4793 12.7949C31.4793 12.5005 31.1857 12.2649 30.819 12.2649C30.5885 12.2649 30.3789 12.3657 30.2635 12.5172V12.5005C30.2635 12.206 29.97 11.9704 29.6032 11.9704C29.3727 11.9704 29.1631 12.0713 29.0477 12.2142V12.1975C29.0477 11.9031 28.7542 11.6675 28.3874 11.6675C28.1569 11.6675 27.9473 11.7683 27.8319 11.9113L27.8323 10.1536C27.8323 10.0106 27.759 9.8759 27.6436 9.77502C27.5179 9.67414 27.3501 9.62354 27.1826 9.62354C26.8158 9.62354 26.5223 9.85914 26.5223 10.1536V13.4175C26.5223 13.4511 26.5015 13.4764 26.4699 13.4849C26.4384 13.4935 26.3967 13.4935 26.3758 13.4681L25.7053 12.9381C25.4748 12.7613 25.1289 12.7278 24.8562 12.8708C24.6991 12.9549 24.5943 13.0896 24.5734 13.2408C24.5419 13.3922 24.6049 13.5437 24.7199 13.6614L26.386 15.2764C26.8575 15.7305 27.5494 16 28.2931 16H29.3305C29.9068 16 30.4517 15.815 30.8607 15.4867C31.2692 15.1588 31.5001 14.7211 31.5001 14.2584L31.4793 12.7949Z" fill="#003057"/>
<path d="M27.1719 9.11032C27.3397 9.11032 27.4756 9.0009 27.4756 8.86651L27.4761 8.24382C27.4761 8.10909 27.3397 8 27.1723 8C27.0045 8 26.8686 8.10942 26.8686 8.24382V8.86618C26.8682 9.00091 27.0045 9.11032 27.1719 9.11032Z" fill="#003057"/>
<path d="M25.8304 9.4133C25.8934 9.4639 25.9667 9.48066 26.04 9.48066C26.1132 9.48066 26.1972 9.45536 26.2496 9.4133C26.365 9.32063 26.365 9.16093 26.2496 9.06826L25.7047 8.6309C25.5893 8.53823 25.3903 8.53823 25.2749 8.6309C25.1594 8.72357 25.1594 8.88327 25.2749 8.97593L25.8304 9.4133Z" fill="#003057"/>
<path d="M24.7931 10.3975H25.5791C25.7469 10.3975 25.8828 10.2881 25.8828 10.1537C25.8828 10.0189 25.7465 9.90985 25.5791 9.90985H24.8037C24.6359 9.90985 24.5 10.0193 24.5 10.1537C24.4996 10.2881 24.6359 10.3975 24.7931 10.3975Z" fill="#003057"/>
<path d="M28.4716 10.1537C28.4716 10.2884 28.6079 10.3975 28.7753 10.3975H29.5507C29.7185 10.3975 29.8544 10.2881 29.8544 10.1537C29.8544 10.0189 29.7181 9.90985 29.5507 9.90985H28.7753C28.6075 9.90952 28.4716 10.0189 28.4716 10.1537Z" fill="#003057"/>
<path d="M28.3038 9.4889C28.3771 9.4889 28.461 9.4636 28.5134 9.42154L29.0582 8.98417C29.1737 8.89151 29.1737 8.73181 29.0582 8.63914C28.9428 8.54647 28.7439 8.54647 28.6284 8.63914L28.0942 9.06829C27.9788 9.16096 27.9788 9.32066 28.0942 9.41332C28.1572 9.4636 28.2305 9.4889 28.3038 9.4889Z" fill="#003057"/>
<path d="M12.3099 24.5722C12.2316 24.5232 12.1432 24.4983 12.0537 24.5001C11.9641 24.5018 11.8765 24.5302 11.7998 24.5822L9.71684 26.0129H9.14794C8.84357 26.0129 8.55154 26.1494 8.33623 26.3923C8.12092 26.6352 8 26.9647 8 27.3083V28.6901V28.69C8 29.0335 8.12091 29.3631 8.33623 29.606C8.55155 29.8489 8.84355 29.9854 9.14794 29.9854H9.71684L11.7959 31.4161C11.8996 31.4873 12.0224 31.5145 12.1422 31.4927C12.262 31.471 12.3711 31.4018 12.4497 31.2975C12.5284 31.1932 12.5715 31.0608 12.5714 30.9238V25.0744C12.5714 24.972 12.5471 24.8715 12.5011 24.7831C12.4552 24.6949 12.3892 24.622 12.3099 24.5721L12.3099 24.5722ZM8.76537 28.6898V27.3082C8.76537 27.1936 8.80568 27.0838 8.87739 27.0029C8.94919 26.9218 9.04653 26.8764 9.14796 26.8764H9.46809L9.46818 29.1216H9.14796C9.04653 29.1216 8.94919 29.0761 8.87739 28.9951C8.80568 28.9142 8.76537 28.8044 8.76537 28.6898L8.76537 28.6898ZM11.8061 30.417L10.2333 29.3289V26.6693L11.806 25.5869L11.8061 30.417Z" fill="#003057"/>
<path d="M12.6773 26.0653C12.6095 26.1694 12.5714 26.3106 12.5714 26.4578C12.5714 26.605 12.6095 26.7463 12.6773 26.8504C12.8759 27.1556 12.9875 27.569 12.9875 28.0003C12.9875 28.4315 12.8759 28.8451 12.6773 29.1502C12.5859 29.2915 12.5505 29.4968 12.5845 29.6889C12.6185 29.881 12.7168 30.0306 12.8423 30.0814C12.9677 30.1322 13.1014 30.0765 13.1928 29.9354C13.5267 29.4217 13.7142 28.7257 13.7142 28.0003C13.7142 27.2748 13.5267 26.579 13.1928 26.0652C13.1247 25.9594 13.0319 25.8999 12.9351 25.8999C12.8382 25.8999 12.7454 25.9594 12.6773 26.0652L12.6773 26.0653Z" fill="#003057"/>
<path d="M13.87 24.6575C13.7703 24.7578 13.7143 24.894 13.7143 25.0357C13.7143 25.1776 13.7703 25.3136 13.87 25.4139C14.5523 26.1024 14.9356 27.0349 14.9356 28.007C14.9356 28.979 14.5523 29.9114 13.87 30.5999C13.7434 30.7366 13.6967 30.9296 13.747 31.1094C13.7971 31.2892 13.9368 31.4297 14.1156 31.4801C14.2943 31.5305 14.4864 31.4837 14.6223 31.3564C15.5045 30.467 16 29.2622 16 28.006C16 26.7498 15.5045 25.545 14.6223 24.6557C14.5221 24.5556 14.3868 24.4996 14.2457 24.5C14.1047 24.5004 13.9696 24.557 13.87 24.6574L13.87 24.6575Z" fill="#003057"/>
<path d="M28 31.9999C29.0609 31.9999 30.0783 31.5785 30.8284 30.8283C31.5786 30.0782 32 29.0608 32 28C32 26.9391 31.5786 25.9216 30.8284 25.1716C30.0783 24.4214 29.0609 24 28 24C26.9391 24 25.9217 24.4214 25.1716 25.1716C24.4214 25.9217 24 26.9391 24 28C24.0012 29.0605 24.423 30.0772 25.1729 30.8272C25.9228 31.5771 26.9395 31.9989 28.0001 32L28 31.9999ZM28 24.7999C28.8487 24.7999 29.6626 25.1371 30.2628 25.7371C30.8629 26.3373 31.2 27.1512 31.2 27.9999C31.2 28.8486 30.8629 29.6625 30.2628 30.2627C29.6626 30.8628 28.8487 31.1999 28 31.1999C27.1513 31.1999 26.3374 30.8628 25.7372 30.2627C25.1371 29.6625 24.8 28.8486 24.8 27.9999C24.8009 27.1515 25.1384 26.3381 25.7383 25.7382C26.3382 25.1383 27.1516 24.8009 28 24.7999V24.7999Z" fill="#003057"/>
<path d="M27.2229 29.5598C27.3505 29.6283 27.4943 29.6607 27.6389 29.6537C27.7835 29.6466 27.9235 29.6004 28.0437 29.5198L29.3238 28.6674C29.5463 28.519 29.68 28.2693 29.68 28.0018C29.68 27.7344 29.5463 27.4847 29.3238 27.3363L28.0437 26.4839C27.8826 26.3764 27.6879 26.3312 27.4958 26.3564C27.3037 26.3817 27.1273 26.4758 26.9994 26.6213C26.8715 26.7668 26.8007 26.9537 26.8001 27.1474V28.8523C26.7998 28.9974 26.8389 29.14 26.9134 29.2647C26.9879 29.3893 27.0949 29.4914 27.2229 29.5599L27.2229 29.5598ZM28.8802 27.9998L27.6002 28.855V27.1474L28.8802 27.9998Z" fill="#003057"/>
</g>
<defs>
<clipPath id="clip0_626_337">
<rect width="24" height="24" fill="white" transform="translate(8 8)"/>
</clipPath>
</defs>
</svg>
