<svg width="40" height="40" viewBox="0 0 40 40" fill="none" xmlns="http://www.w3.org/2000/svg">
<path d="M27.2 15.2L22.4001 10.3999L20 8H11.6001C11.2817 8 10.9765 8.12636 10.7515 8.35136C10.5265 8.57636 10.4 8.8817 10.4 9.19994V30.8001C10.4 31.1183 10.5265 31.4236 10.7515 31.6486C10.9765 31.8736 11.2817 32 11.6001 32H28.3999C28.7183 32 29.0235 31.8736 29.2485 31.6486C29.4735 31.4236 29.6 31.1183 29.6 30.8001V17.5998L27.2 15.2ZM23.8039 15.2H22.4001V13.796L23.8039 15.2ZM12.8002 29.6001V10.3997H20.0003V16.3999C20.0003 16.7181 20.1266 17.0235 20.3518 17.2485C20.5768 17.4735 20.882 17.5998 21.2002 17.5998H27.2004V29.6002L12.8002 29.6001Z" fill="#003057"/>
</svg>
