<svg width="40" height="40" viewBox="0 0 40 40" fill="none" xmlns="http://www.w3.org/2000/svg">
<g clip-path="url(#clip0_626_326)">
<path d="M31.0769 8H8.92308C8.41353 8 8 8.41353 8 8.92308V31.0769C8 31.5865 8.41353 32 8.92308 32H31.0769C31.5865 32 32 31.5865 32 31.0769V8.92308C32 8.41353 31.5865 8 31.0769 8ZM30.1538 9.84615V20.5407L28.0372 18.424C27.6768 18.0636 27.0924 18.0636 26.7319 18.424L20.4613 24.6946L16.96 21.1932C16.6 20.8329 16.0146 20.8329 15.6547 21.1932L9.84615 27.0023V9.84626L30.1538 9.84615ZM9.84615 29.6132L16.3077 23.1516L23.3099 30.1538H9.84615V29.6132ZM25.9209 30.1541L21.767 26.0002L27.3846 20.3826L29.9629 22.9609C30.021 23.019 30.0865 23.0643 30.1539 23.1039V30.1541L25.9209 30.1541Z" fill="#003057"/>
<path d="M16.3077 19.0769C18.3436 19.0769 20 17.4206 20 15.3846C20 13.3487 18.3436 11.6923 16.3077 11.6923C14.2718 11.6923 12.6154 13.3487 12.6154 15.3846C12.6154 17.4206 14.2718 19.0769 16.3077 19.0769ZM16.3077 13.5385C17.3258 13.5385 18.1538 14.3666 18.1538 15.3846C18.1538 16.4027 17.3258 17.2308 16.3077 17.2308C15.2896 17.2308 14.4615 16.4027 14.4615 15.3846C14.4615 14.3666 15.2896 13.5385 16.3077 13.5385Z" fill="#003057"/>
</g>
<defs>
<clipPath id="clip0_626_326">
<rect width="24" height="24" fill="white" transform="translate(8 8)"/>
</clipPath>
</defs>
</svg>
