<svg width="40" height="40" viewBox="0 0 40 40" fill="none" xmlns="http://www.w3.org/2000/svg">
<path d="M30.0517 22.3847C30.0517 21.5014 29.2052 20.7946 28.1474 20.7946C27.4827 20.7946 26.8782 21.0973 26.5453 21.5517V21.5014C26.5453 20.6182 25.6988 19.9114 24.641 19.9114C23.9763 19.9114 23.3719 20.214 23.0389 20.6428V20.5925C23.0389 19.7093 22.1924 19.0024 21.1346 19.0024C20.47 19.0024 19.8655 19.3051 19.5326 19.7339L19.5337 14.4608C19.5337 14.0319 19.3224 13.6278 18.9895 13.3251C18.6271 13.0225 18.143 12.8707 17.6602 12.8707C16.6024 12.8707 15.7559 13.5775 15.7559 14.4608V24.2527C15.7559 24.3533 15.6957 24.4292 15.6047 24.4548C15.5138 24.4804 15.3934 24.4804 15.3332 24.4045L13.3994 22.8144C12.7348 22.2841 11.7371 22.1835 10.9509 22.6123C10.4975 22.8647 10.1953 23.2689 10.1351 23.7223C10.0442 24.1768 10.226 24.6312 10.5577 24.9841L15.3626 29.8293C16.7226 31.1916 18.718 32 20.8629 32H23.8545C25.5168 32 27.0881 31.445 28.2677 30.4602C29.4459 29.4764 30.1118 28.1633 30.1118 26.7752L30.0517 22.3847Z" fill="#003057"/>
<path d="M19.0489 11.331C19.6243 11.331 20.0903 11.0027 20.0903 10.5995L20.0917 8.73145C20.0917 8.32726 19.6243 8 19.0503 8C18.4748 8 18.0089 8.32827 18.0089 8.73145V10.5985C18.0075 11.0027 18.4749 11.331 19.0489 11.331Z" fill="#003057"/>
<path d="M14.4495 12.24C14.6657 12.3918 14.9169 12.4421 15.1681 12.4421C15.4194 12.4421 15.7071 12.3662 15.8867 12.24C16.2825 11.962 16.2825 11.4829 15.8867 11.2049L14.0187 9.89283C13.6229 9.61483 12.9408 9.61483 12.545 9.89283C12.1492 10.1708 12.1492 10.6499 12.545 10.9279L14.4495 12.24Z" fill="#003057"/>
<path d="M10.8931 15.1924H13.5879C14.1633 15.1924 14.6293 14.8641 14.6293 14.4609C14.6293 14.0568 14.1619 13.7295 13.5879 13.7295H10.9296C10.3542 13.7295 9.88825 14.0578 9.88825 14.4609C9.88684 14.8641 10.3542 15.1924 10.8931 15.1924Z" fill="#003057"/>
<path d="M23.5052 14.461C23.5052 14.8652 23.9726 15.1925 24.5466 15.1925H27.2049C27.7803 15.1925 28.2463 14.8642 28.2463 14.461C28.2463 14.0568 27.7789 13.7296 27.2049 13.7296H24.5466C23.9712 13.7286 23.5052 14.0568 23.5052 14.461Z" fill="#003057"/>
<path d="M22.9296 12.4666C23.1808 12.4666 23.4686 12.3907 23.6482 12.2645L25.5163 10.9525C25.9121 10.6745 25.9121 10.1954 25.5163 9.91736C25.1205 9.63936 24.4384 9.63936 24.0426 9.91736L22.211 11.2048C21.8152 11.4828 21.8152 11.9619 22.211 12.2399C22.4271 12.3907 22.6784 12.4666 22.9296 12.4666Z" fill="#003057"/>
</svg>
