<svg width="40" height="40" viewBox="0 0 40 40" fill="none" xmlns="http://www.w3.org/2000/svg">
<path d="M8 12.4552C8 11.9677 8.37608 11.5725 8.84 11.5725H19.16C19.6239 11.5725 20 11.9677 20 12.4552V27.5038C20 27.9913 19.6239 28.3865 19.16 28.3865H8.84C8.37608 28.3865 8 27.9913 8 27.5038V12.4552Z" fill="#D70000"/>
<path d="M12.7428 8.88403C12.7428 8.20759 13.4371 7.78251 13.9971 8.1161L19.5742 11.4385C19.8374 11.5952 20 11.8886 20 12.2064V27.9776C20 28.303 19.8296 28.6021 19.5565 28.7558L13.9794 31.8942C13.4198 32.2091 12.7428 31.7831 12.7428 31.116L12.7428 8.88403Z" fill="#F03232"/>
<path d="M32 12.4552C32 11.9677 31.6239 11.5725 31.16 11.5725H20.84C20.3761 11.5725 20 11.9677 20 12.4552V27.5038C20 27.9913 20.3761 28.3865 20.84 28.3865H31.16C31.6239 28.3865 32 27.9913 32 27.5038V12.4552Z" fill="#3287FA"/>
<path d="M27.2572 8.88403C27.2572 8.20759 26.5629 7.78251 26.0029 8.1161L20.4258 11.4385C20.1626 11.5952 20 11.8886 20 12.2064V27.9776C20 28.303 20.1704 28.6021 20.4435 28.7558L26.0206 31.8942C26.5802 32.2091 27.2572 31.7831 27.2572 31.116L27.2572 8.88403Z" fill="#FFCD19"/>
</svg>
