<svg width="40" height="40" viewBox="0 0 40 40" fill="none" xmlns="http://www.w3.org/2000/svg">
<path d="M20.6069 11.1871C20.3779 11.0601 20.1192 10.9956 19.8574 11.0002C19.5953 11.0047 19.3392 11.0783 19.1147 11.2131L13.0219 14.9217H11.3578C10.4675 14.9217 9.61331 15.2757 8.98351 15.9052C8.3537 16.535 8 17.3892 8 18.2798V21.8617V21.8614C8 22.752 8.35368 23.6062 8.98351 24.236C9.61332 24.8655 10.4674 25.2195 11.3578 25.2195H13.0219L19.1035 28.9281C19.4067 29.1126 19.7658 29.1831 20.1164 29.1267C20.4667 29.0704 20.7857 28.8911 21.0158 28.6207C21.2458 28.3503 21.3721 28.007 21.3718 27.6521V12.489C21.3718 12.2235 21.3008 11.963 21.1662 11.734C21.0319 11.5052 20.8388 11.3163 20.6069 11.1869L20.6069 11.1871ZM10.2388 21.861V18.2794C10.2388 17.9825 10.3567 17.6978 10.5664 17.488C10.7765 17.278 11.0612 17.1601 11.3579 17.1601H12.2943L12.2945 22.9803H11.3579C11.0612 22.9803 10.7765 22.8624 10.5664 22.6524C10.3567 22.4426 10.2388 22.1579 10.2388 21.861L10.2388 21.861ZM19.1332 26.3381L14.5327 23.5175V16.6232L19.1329 13.8174L19.1332 26.3381Z" fill="#003057"/>
<path d="M23.633 16.1686C23.4235 16.3784 23.3056 16.6629 23.3056 16.9595C23.3056 17.256 23.4235 17.5407 23.633 17.7504C24.2467 18.3654 24.5915 19.1985 24.5915 20.0675C24.5915 20.9362 24.2467 21.7695 23.633 22.3842C23.3504 22.6689 23.2411 23.0827 23.3462 23.4697C23.4513 23.8567 23.7551 24.1581 24.1428 24.2606C24.5306 24.3629 24.9437 24.2507 25.226 23.9663C26.2582 22.9312 26.8377 21.529 26.8377 20.0674C26.8377 18.6056 26.2582 17.2036 25.226 16.1685C25.0157 15.9554 24.7289 15.8354 24.4297 15.8354C24.1301 15.8354 23.8433 15.9554 23.633 16.1685L23.633 16.1686Z" fill="#003057"/>
<path d="M27.5205 13.0639C27.311 13.2737 27.1931 13.5584 27.1931 13.8548C27.1931 14.1515 27.311 14.436 27.5205 14.6457C28.9556 16.0857 29.7616 18.0358 29.7616 20.0688C29.7616 22.1017 28.9556 24.0517 27.5205 25.4918C27.2543 25.7775 27.1562 26.1812 27.2619 26.5572C27.3673 26.9333 27.6611 27.2271 28.0372 27.3325C28.413 27.4379 28.8169 27.3401 29.1026 27.0738C30.958 25.2138 32 22.6941 32 20.0669C32 17.4396 30.9579 14.9199 29.1026 13.06C28.8921 12.8508 28.6074 12.7337 28.3107 12.7344C28.0142 12.7352 27.73 12.8536 27.5206 13.0637L27.5205 13.0639Z" fill="#003057"/>
</svg>
