<svg width="40" height="40" viewBox="0 0 40 40" fill="none" xmlns="http://www.w3.org/2000/svg">
<path d="M30.9999 13.9998H19C17.9998 13.9998 17.9998 13.9998 17.9998 15V16.0001C17.9998 17.0002 17.9998 17.0002 19 17.0002H30.9999C32 17.0002 32 17.0002 32 16.0001V15C32 13.9998 32 13.9998 30.9999 13.9998ZM30.9999 22.9998H19C17.9998 22.9998 17.9998 22.9998 17.9998 23.9999V25C17.9998 26.0001 17.9998 26.0001 19 26.0001H30.9999C32 25.9998 32 25.9998 32 24.9997V23.9996C32 22.9998 32 22.9998 30.9999 22.9998V22.9998ZM30.9999 28.9998H19C17.9998 28.9998 17.9998 28.9998 17.9998 29.9999V31C17.9998 32.0001 17.9998 32.0001 19 32.0001H30.9999C32 31.9998 32 31.9998 32 30.9996V29.9995C32 28.9998 32 28.9998 30.9999 28.9998ZM30.9999 7.99988H19C17.9998 7.99988 17.9998 7.99988 17.9998 8.99999V10.0001C17.9998 11.0002 17.9998 11.0002 19 11.0002H30.9999C32 11.0002 32 11.0002 32 10.0001V8.99999C32 7.99988 32 7.99988 30.9999 7.99988ZM13.5001 7.99988H9.50004L9.00015 10.5H11V16.9997H13.5001V7.99988ZM11.4999 22.8198C9.50004 22.8198 8.00004 24.1598 8.00004 26.1598H10.2001C10.2001 25.4597 10.6003 24.8198 11.5003 24.8198C12.3102 24.8198 12.7403 25.335 12.7302 25.9649C12.7252 26.3749 12.4451 26.755 11.2901 27.7249L8 30.4997V31.9997H15.0002V29.7198H12.3202L13.5451 28.4898C14.6703 27.3646 14.9999 26.7148 14.9999 25.7599C15.0002 24.2398 13.5003 22.8198 11.5 22.8198H11.4999Z" fill="#003057"/>
</svg>
