<svg width="40" height="40" viewBox="0 0 40 40" fill="none" xmlns="http://www.w3.org/2000/svg">
<path fill-rule="evenodd" clip-rule="evenodd" d="M19.4232 16.42L27.7575 27.3956L22.473 31.4086H17.1977L10.7928 22.9741L19.4232 16.42ZM13.0841 23.2875L18.0092 29.7733H21.9225L25.4662 27.0822L19.1098 18.7114L13.0841 23.2875Z" fill="#003057"/>
<path d="M8.54303 29.6855H31.457V32H8.54303V29.6855Z" fill="#003057"/>
<path d="M13.2023 8.00112C11.5682 7.95679 10.2011 9.23628 10.1368 10.8697C10.1004 11.7909 10.4869 12.622 11.1236 13.1797L13.5042 16.4225C13.8457 16.8875 14.4953 16.9869 14.9606 16.6455C15.4256 16.3037 15.525 15.6543 15.1835 15.1891L14.2617 13.9328L14.4562 13.9382L16.3481 16.5152C16.6896 16.9802 17.3393 17.0796 17.8045 16.7381C18.2695 16.3966 18.3689 15.747 18.0275 15.2818L17.0936 14.0098L17.2014 14.0128L19.1137 16.6176C19.4552 17.0826 20.1048 17.1827 20.5701 16.8412C21.0351 16.4995 21.1345 15.85 20.793 15.3848L19.2758 13.3188C19.3384 13.2665 19.3991 13.2125 19.4572 13.1555L21.6848 16.1891C22.0263 16.6543 22.6759 16.7535 23.1409 16.4121C23.6062 16.0706 23.7054 15.4216 23.3639 14.9563L20.8062 11.4727L21.7721 11.848C22.3099 12.057 22.9116 11.7925 23.1205 11.2546C23.3294 10.7166 23.0643 10.1152 22.5264 9.90621L18.8252 8.46728C18.5999 8.34614 18.3574 8.25102 18.0998 8.19206C18.0079 8.16215 17.915 8.14644 17.8227 8.14257C17.7218 8.12944 17.6193 8.12062 17.5154 8.11782L13.2023 8.00112Z" fill="#003057"/>
</svg>
