<svg width="40" height="40" viewBox="0 0 40 40" fill="none" xmlns="http://www.w3.org/2000/svg">
<path d="M29.9674 8.00021H10.0328C9.51375 8.00021 9.01608 8.20632 8.64906 8.57331C8.28206 8.94031 8.07596 9.438 8.07596 9.95685V10.9964C8.0763 11.43 8.22064 11.8512 8.48629 12.1938C8.75177 12.5366 9.12373 12.7812 9.5436 12.8896V23.9283C9.5436 24.577 9.80123 25.1991 10.26 25.6579C10.7186 26.1165 11.3407 26.3743 11.9896 26.3743H19.0217V27.2818V27.2816C18.324 27.5839 17.8054 28.1919 17.6165 28.9282C17.4276 29.6648 17.5899 30.4472 18.056 31.048C18.5221 31.6485 19.2397 32 20 32C20.7603 32 21.4779 31.6485 21.944 31.048C22.4101 30.4472 22.5724 29.6648 22.3835 28.9282C22.1946 28.1919 21.676 27.5839 20.9783 27.2816V26.3743H28.0104C28.6593 26.3743 29.2814 26.1165 29.74 25.6579C30.1988 25.1991 30.4564 24.577 30.4564 23.9283V12.887C30.8763 12.7786 31.2482 12.5338 31.5137 12.1912C31.7794 11.8486 31.9237 11.4274 31.924 10.9938V9.95664C31.924 9.43779 31.7179 8.94012 31.3509 8.5731C30.984 8.2061 30.4863 8 29.9672 8L29.9674 8.00021ZM20.0001 30.0431C19.7964 30.0431 19.6126 29.9203 19.5346 29.7321C19.4565 29.5437 19.4997 29.3271 19.6438 29.1829C19.7878 29.0389 20.0047 28.9957 20.1929 29.0737C20.3812 29.1517 20.5039 29.3354 20.5039 29.5391C20.5039 29.6729 20.4508 29.801 20.3563 29.8956C20.2618 29.9899 20.1337 30.0431 20.0001 30.0431V30.0431ZM10.0328 9.95655H29.9674V10.9961H10.0328V9.95655ZM28.0106 24.4196H11.9895C11.7193 24.4196 11.5002 24.2005 11.5002 23.9305V12.9529H28.4997L28.4998 23.9278C28.4998 24.0575 28.4483 24.1819 28.3565 24.2737C28.2647 24.3655 28.1403 24.417 28.0105 24.417L28.0106 24.4196Z" fill="#003057"/>
<path d="M13.396 16.7124H15.2794C15.6288 16.7124 15.9518 16.5259 16.1267 16.2232C16.3014 15.9206 16.3014 15.5476 16.1267 15.2449C15.9518 14.9423 15.6288 14.7558 15.2794 14.7558H13.396C13.0464 14.7558 12.7234 14.9423 12.5487 15.2449C12.3738 15.5476 12.3738 15.9206 12.5487 16.2232C12.7234 16.5259 13.0464 16.7124 13.396 16.7124Z" fill="#003057"/>
<path d="M17.4807 17.6912H13.396C13.0464 17.6912 12.7234 17.8777 12.5487 18.1804C12.3738 18.483 12.3738 18.856 12.5487 19.1587C12.7234 19.4615 13.0464 19.648 13.396 19.648H17.4807C17.8303 19.648 18.1533 19.4615 18.328 19.1587C18.5027 18.856 18.5027 18.483 18.328 18.1804C18.1533 17.8777 17.8303 17.6912 17.4807 17.6912V17.6912Z" fill="#003057"/>
<path d="M17.4807 21.1156H13.396C13.0464 21.1156 12.7234 21.3021 12.5487 21.6047C12.3738 21.9076 12.3738 22.2806 12.5487 22.5832C12.7234 22.8859 13.0464 23.0724 13.396 23.0724H17.4807C17.8303 23.0724 18.1533 22.8859 18.328 22.5832C18.5027 22.2805 18.5027 21.9076 18.328 21.6047C18.1533 21.3021 17.8303 21.1156 17.4807 21.1156Z" fill="#003057"/>
<path d="M21.0593 19.0679C20.7999 19.0679 20.551 19.171 20.3676 19.3546C20.184 19.538 20.0809 19.7869 20.0809 20.0463V21.6973C20.0809 22.0469 20.2674 22.3699 20.5701 22.5446C20.8729 22.7195 21.2457 22.7195 21.5486 22.5446C21.8512 22.3699 22.0377 22.0469 22.0377 21.6973V20.0463C22.0377 19.7869 21.9347 19.538 21.7511 19.3546C21.5677 19.171 21.3187 19.0679 21.0592 19.0679H21.0593Z" fill="#003057"/>
<path d="M23.9944 14.6652C23.7349 14.6652 23.486 14.7683 23.3026 14.9519C23.119 15.1353 23.0159 15.3842 23.0159 15.6437V21.6975C23.0159 22.0471 23.2024 22.37 23.5051 22.5447C23.8079 22.7196 24.1809 22.7196 24.4835 22.5447C24.7862 22.37 24.9727 22.047 24.9727 21.6975V15.6437C24.9727 15.3842 24.8696 15.1353 24.6862 14.9519C24.5026 14.7683 24.2539 14.6652 23.9944 14.6652H23.9944Z" fill="#003057"/>
<path d="M26.9296 16.867C26.6701 16.867 26.4211 16.9701 26.2377 17.1535C26.0543 17.3371 25.9511 17.5858 25.9511 17.8453V21.6977C25.9511 22.0473 26.1376 22.3702 26.4404 22.5449C26.7431 22.7198 27.1161 22.7198 27.4187 22.5449C27.7214 22.3702 27.9078 22.0472 27.9078 21.6977V17.8453C27.9078 17.5858 27.8048 17.337 27.6214 17.1535C27.4378 16.9701 27.189 16.867 26.9295 16.867H26.9296Z" fill="#003057"/>
</svg>
