<svg width="40" height="40" viewBox="0 0 40 40" fill="none" xmlns="http://www.w3.org/2000/svg">
<path d="M11.7479 8C11.3387 8.00151 11.0025 8.338 11.0007 8.74717V31.2472C10.9993 31.6585 11.3365 31.9983 11.7479 32H28.2521C28.6636 31.9983 29.001 31.6585 28.9993 31.2472V8.74717C28.9978 8.33802 28.6613 8.00154 28.2521 8L11.7479 8ZM12.5009 9.5H27.4979V30.5H12.5009V9.5ZM15.5009 13.2485C15.4953 13.2485 15.4898 13.2483 15.4843 13.2483C15.0726 13.2483 14.7339 13.587 14.7339 13.9985C14.7339 14.4102 15.0726 14.7487 15.4843 14.7487C15.4898 14.7487 15.4953 14.7487 15.5009 14.7485H24.5033C24.5088 14.7487 24.5143 14.7487 24.52 14.7487C24.9315 14.7487 25.27 14.4102 25.27 13.9985C25.27 13.587 24.9315 13.2483 24.52 13.2483C24.5143 13.2483 24.5088 13.2485 24.5033 13.2485H15.5009ZM15.5009 16.2485C15.0889 16.2485 14.75 16.5873 14.75 16.9994C14.75 17.4112 15.0888 17.75 15.5009 17.75H24.4979C24.9099 17.75 25.2485 17.4112 25.2485 16.9994C25.2485 16.5874 24.9099 16.2485 24.4979 16.2485H15.5009ZM15.4905 19.2383C15.0761 19.2427 14.743 19.5827 14.7478 19.9972V25.9985C14.7462 26.415 15.0842 26.7531 15.5008 26.7515H17.8446L17.1239 27.8309C17.0412 27.9548 16.9969 28.1003 16.9969 28.2493C16.9969 28.662 17.3367 29.0017 17.7494 29.0017C18.0005 29.0017 18.2354 28.8759 18.3749 28.6673L19.8749 26.4145C20.0419 26.1636 20.0419 25.835 19.8749 25.584L18.3749 23.3355C18.2227 23.0968 17.9476 22.9638 17.6659 22.9928C17.2843 23.0306 16.9904 23.3554 16.9904 23.7388C16.9904 23.8914 17.0371 24.0404 17.1239 24.166L17.849 25.2515H16.2479V19.9972C16.2528 19.5763 15.9115 19.2333 15.4905 19.2383ZM18.5165 19.25C18.511 19.2499 18.5053 19.2499 18.4997 19.2499C18.0882 19.2499 17.7494 19.5885 17.7494 19.9999C17.7494 20.4115 18.0882 20.7502 18.4997 20.7502C18.5053 20.7502 18.511 20.7502 18.5165 20.75H24.4978C24.5033 20.7502 24.5088 20.7502 24.5143 20.7502C24.926 20.7502 25.2647 20.4115 25.2647 19.9999C25.2647 19.5885 24.926 19.2499 24.5143 19.2499C24.5088 19.2499 24.5033 19.2499 24.4978 19.25H18.5165ZM20.8119 22.2513C20.4207 22.279 20.1135 22.6086 20.1135 23.0007C20.1135 23.4127 20.4525 23.7516 20.8646 23.7516C20.871 23.7516 20.3701 23.7513 20.8837 23.7513H24.4978C24.5033 23.7515 24.5088 23.7515 24.5143 23.7515C24.926 23.7515 25.2647 23.413 25.2647 23.0015C25.2647 22.5898 24.926 22.2511 24.5143 22.2511C24.5088 22.2511 24.5033 22.2513 24.4978 22.2513H20.8837C20.8596 22.2503 20.8358 22.2503 20.8119 22.2513ZM22.1731 25.2515C21.7829 25.2803 21.4772 25.6093 21.4772 26.0007C21.4772 26.4127 21.8162 26.7516 22.2284 26.7516C22.2358 26.7516 22.2433 26.7516 22.2507 26.7515H24.4978C24.903 26.7424 25.2314 26.4066 25.2314 26.0015C25.2314 25.5962 24.903 25.2605 24.4978 25.2515H22.2507C22.2249 25.2501 22.1989 25.2502 22.1731 25.2515Z" fill="#003057"/>
</svg>
