<svg width="40" height="40" viewBox="0 0 40 40" fill="none" xmlns="http://www.w3.org/2000/svg">
<path d="M26.8572 9.71429H23.4286C22.9552 9.71429 22.5714 10.0981 22.5714 10.5714V10.5714C22.5714 11.0448 22.9552 11.4286 23.4286 11.4286H26.8572C27.8 11.4286 28.5714 12.2 28.5714 13.1429V26.8572C28.5714 27.8 27.8 28.5714 26.8572 28.5714H23.4286C22.9552 28.5714 22.5714 28.9552 22.5714 29.4286V29.4286C22.5714 29.902 22.9552 30.2857 23.4286 30.2857H26.8572C28.7429 30.2857 30.2857 28.7429 30.2857 26.8572V13.1429C30.2857 11.2572 28.7429 9.71429 26.8572 9.71429Z" fill="#003057"/>
<path d="M19.1429 9.71429H13.1429C11.2572 9.71429 9.71429 11.2571 9.71429 13.1429V26.8571C9.71429 28.7429 11.2572 30.2857 13.1429 30.2857H19.1429V31.1429C19.1429 31.6162 19.5266 32 20 32V32C20.4734 32 20.8572 31.6162 20.8572 31.1429V8.85714C20.8572 8.38376 20.4734 8 20 8V8C19.5266 8 19.1429 8.38376 19.1429 8.85714V9.71429Z" fill="#003057"/>
</svg>
