<svg width="40" height="40" viewBox="0 0 40 40" fill="none" xmlns="http://www.w3.org/2000/svg">
<path d="M28.3999 8H11.6001C10.6452 8 9.72952 8.37929 9.0543 9.0543C8.37929 9.72952 8 10.6452 8 11.6001V28.3999C8 29.3548 8.37929 30.2705 9.0543 30.9457C9.72952 31.6207 10.6452 32 11.6001 32H28.3999C29.3548 32 30.2705 31.6207 30.9457 30.9457C31.6207 30.2705 32 29.3548 32 28.3999V11.6001C32 10.6452 31.6207 9.72952 30.9457 9.0543C30.2705 8.37929 29.3548 8 28.3999 8V8ZM11.6001 10.3999H28.3999C28.7184 10.3999 29.0235 10.5265 29.2485 10.7515C29.4735 10.9765 29.6001 11.2816 29.6001 11.6V15.2001H10.3995V11.6C10.3995 11.2816 10.526 10.9765 10.751 10.7515C10.976 10.5265 11.2812 10.3999 11.5996 10.3999H11.6001ZM17.5998 22.4004V17.6002H22.3998V22.4002L17.5998 22.4004ZM22.3998 24.8005V29.6005H17.5998V24.8003L22.3998 24.8005ZM15.1997 22.4004H10.3995V17.6002H15.1995L15.1997 22.4004ZM24.8 17.6004H29.6V22.4004H24.7998L24.8 17.6004ZM10.3998 28.4006V24.8005H15.1998V29.6005L11.5999 29.6007C11.2815 29.6007 10.9764 29.4742 10.7514 29.2491C10.5264 29.0241 10.3998 28.719 10.3998 28.4006H10.3998ZM28.4 29.6005L24.8 29.6007V24.8005H29.6V28.4006H29.6002C29.6002 28.719 29.4736 29.0241 29.2486 29.2491C29.0236 29.4741 28.7185 29.6007 28.4001 29.6007L28.4 29.6005Z" fill="#003057"/>
</svg>
