<svg width="40" height="40" viewBox="0 0 40 40" fill="none" xmlns="http://www.w3.org/2000/svg">
<path d="M31.2341 9.53196H8.76595C8.3575 9.53196 8 9.17463 8 8.76601C8 8.35756 8.3575 8.00006 8.76595 8.00006H31.2336C31.6421 8.00006 31.9996 8.35756 31.9996 8.76601C31.9997 9.17463 31.6422 9.53196 31.2338 9.53196H31.2341Z" fill="#003057"/>
<path d="M25.0553 13.2596H8.76595C8.3575 13.2596 8 12.9021 8 12.4937C8 12.0852 8.3575 11.7277 8.76595 11.7277H25.0553C25.4637 11.7277 25.8212 12.0852 25.8212 12.4937C25.8212 12.9021 25.4637 13.2596 25.0553 13.2596Z" fill="#003057"/>
<path d="M31.2341 17.0382H8.76595C8.3575 17.0382 8 16.6807 8 16.2722C8 15.8638 8.3575 15.5063 8.76595 15.5063H31.2336C31.6421 15.5063 31.9996 15.8638 31.9996 16.2722C31.9997 16.6809 31.6422 17.0382 31.2338 17.0382H31.2341Z" fill="#003057"/>
<path d="M25.0553 20.7659H8.76595C8.3575 20.7659 8 20.4084 8 20C8 19.5915 8.3575 19.234 8.76595 19.234H25.0553C25.4637 19.234 25.8212 19.5915 25.8212 20C25.8212 20.4084 25.4637 20.7659 25.0553 20.7659Z" fill="#003057"/>
<path d="M31.2341 24.4937H8.76595C8.3575 24.4937 8 24.1362 8 23.7277C8 23.3193 8.3575 22.9618 8.76595 22.9618H31.2336C31.6421 22.9618 31.9996 23.3193 31.9996 23.7277C31.9997 24.1362 31.6422 24.4937 31.2338 24.4937H31.2341Z" fill="#003057"/>
<path d="M25.0553 28.2722H8.76595C8.3575 28.2722 8 27.9147 8 27.5062C8 27.0978 8.3575 26.7403 8.76595 26.7403H25.0553C25.4637 26.7403 25.8212 27.0978 25.8212 27.5062C25.8212 27.9147 25.4637 28.2722 25.0553 28.2722Z" fill="#003057"/>
<path d="M31.2341 32H8.76595C8.3575 32 8 31.6425 8 31.234C8 30.8256 8.3575 30.4681 8.76595 30.4681H31.2336C31.6421 30.4681 31.9996 30.8256 31.9996 31.234C31.9997 31.6425 31.6422 32 31.2338 32H31.2341Z" fill="#003057"/>
</svg>
