<svg width="40" height="40" viewBox="0 0 40 40" fill="none" xmlns="http://www.w3.org/2000/svg">
<path d="M14.9871 8.79404C15.1802 8.98709 15.2888 9.24879 15.2888 9.52198C15.2888 9.79488 15.1802 10.0569 14.9871 10.2499L11.3434 13.8937C11.1503 14.087 10.8883 14.1956 10.6154 14.1953L10.556 14.1933C10.2627 14.1766 9.99062 14.0353 9.8079 13.8052L8.2161 11.7943H8.21639C7.86994 11.3482 7.9478 10.7061 8.39048 10.3554C8.83345 10.0046 9.47609 10.0761 9.83115 10.5154L10.705 11.6202L13.5312 8.79401C13.7243 8.60067 13.986 8.49237 14.2592 8.49237C14.5321 8.49237 14.7941 8.60067 14.9871 8.79401L14.9871 8.79404ZM18.3221 13.1066H30.9704C31.5392 13.1066 32 12.6455 32 12.077C32 11.5082 31.5392 11.0474 30.9704 11.0474H18.3221C17.7536 11.0474 17.2925 11.5082 17.2925 12.077C17.2925 12.6455 17.7536 13.1066 18.3221 13.1066V13.1066ZM30.9704 19.2812L18.3221 19.2809C17.7536 19.2809 17.2925 19.7419 17.2925 20.3105C17.2925 20.879 17.7536 21.34 18.3221 21.34H30.9704C31.5392 21.34 32 20.879 32 20.3105C32 19.7419 31.5392 19.2809 30.9704 19.2809V19.2812ZM30.9704 27.5148H18.3221C17.7536 27.5148 17.2925 27.9756 17.2925 28.5444C17.2925 29.1129 17.7536 29.574 18.3221 29.574H30.9704C31.5392 29.574 32 29.1129 32 28.5444C32 27.9756 31.5392 27.5148 30.9704 27.5148V27.5148ZM12.5432 25.5772H10.7518C10.2051 25.5752 9.68031 25.7918 9.29363 26.1781C8.90696 26.5648 8.69065 27.0897 8.69266 27.6363V29.4485C8.69065 29.9951 8.90696 30.5199 9.29363 30.9066C9.68001 31.2933 10.2052 31.5096 10.7518 31.5076H12.5432C13.0887 31.5059 13.6115 31.2884 13.9973 30.9026C14.3831 30.5168 14.6006 29.994 14.6023 29.4485V27.6363C14.6006 27.0908 14.3831 26.568 13.9973 26.1822C13.6115 25.7964 13.0887 25.579 12.5432 25.5772V25.5772ZM12.5432 17.3612H10.7518C10.204 17.3557 9.67715 17.5709 9.28958 17.9584C8.90235 18.3456 8.68718 18.8725 8.69263 19.4203V21.2117C8.69062 21.7584 8.90694 22.2832 9.29361 22.6699C9.67998 23.0565 10.2051 23.2729 10.7518 23.2709H12.5432C13.0887 23.2691 13.6115 23.0517 13.9973 22.6659C14.3831 22.2801 14.6006 21.7573 14.6023 21.2117V19.4203C14.604 18.8737 14.3877 18.3488 14.0013 17.9622C13.6147 17.5755 13.0898 17.3592 12.5432 17.3612L12.5432 17.3612Z" fill="#003057"/>
</svg>
