<svg width="40" height="40" viewBox="0 0 40 40" fill="none" xmlns="http://www.w3.org/2000/svg">
<path d="M20 25.1428C22.2734 25.1428 24.4536 24.2397 26.0608 22.6322C27.6683 21.0249 28.5714 18.8447 28.5714 16.5714C28.5714 14.2981 27.6683 12.1178 26.0608 10.5106C24.4535 8.90309 22.2733 8 20 8C17.7267 8 15.5464 8.90309 13.9392 10.5106C12.3317 12.1179 11.4286 14.2981 11.4286 16.5714C11.4311 18.844 12.3349 21.0227 13.9419 22.6297C15.5488 24.2368 17.7275 25.1406 20.0002 25.143L20 25.1428ZM20 9.7141C21.8186 9.7141 23.5627 10.4366 24.8488 11.7225C26.1347 13.0086 26.8572 14.7527 26.8572 16.5713C26.8572 18.3899 26.1347 20.134 24.8488 21.4201C23.5627 22.7061 21.8186 23.4285 20 23.4285C18.1814 23.4285 16.4373 22.7061 15.1512 21.4201C13.8653 20.134 13.1428 18.3899 13.1428 16.5713C13.1449 14.7533 13.8679 13.0103 15.1535 11.7248C16.439 10.4393 18.182 9.71621 20 9.7141V9.7141Z" fill="#003057"/>
<path d="M28.5715 28.5714H26.0001V27.7143C26.0001 27.4079 25.8367 27.125 25.5715 26.9719C25.3063 26.8189 24.9795 26.8189 24.7143 26.9719C24.4491 27.125 24.2858 27.4079 24.2858 27.7143V28.5714H11.4285C11.1222 28.5714 10.8392 28.7348 10.6862 29C10.5331 29.2652 10.5331 29.592 10.6862 29.8571C10.8392 30.1223 11.1222 30.2857 11.4285 30.2857H24.2858V31.1429C24.2858 31.4492 24.4491 31.7321 24.7143 31.8852C24.9795 32.0383 25.3063 32.0383 25.5715 31.8852C25.8367 31.7321 26.0001 31.4492 26.0001 31.1429V30.2857H28.5715C28.8778 30.2857 29.1608 30.1223 29.3138 29.8571C29.4669 29.5919 29.4669 29.2652 29.3138 29C29.1608 28.7348 28.8778 28.5714 28.5715 28.5714V28.5714Z" fill="#003057"/>
<path d="M18.3347 19.9142C18.6081 20.061 18.9161 20.1304 19.2261 20.1153C19.5358 20.1002 19.8358 20.0011 20.0936 19.8285L22.8364 18.0019C23.3134 17.6839 23.5998 17.1487 23.5998 16.5755C23.5998 16.0025 23.3134 15.4674 22.8364 15.1494L20.0936 13.3228C19.7482 13.0926 19.3309 12.9956 18.9194 13.0497C18.5078 13.1039 18.1297 13.3056 17.8558 13.6172C17.5816 13.9291 17.4299 14.3295 17.4287 14.7448V18.398C17.4279 18.7091 17.5117 19.0146 17.6713 19.2817C17.8311 19.5488 18.0603 19.7675 18.3346 19.9142L18.3347 19.9142ZM21.8859 16.5713L19.143 18.4039V14.7447L21.8859 16.5713Z" fill="#003057"/>
</svg>
