<svg width="40" height="40" viewBox="0 0 40 40" fill="none" xmlns="http://www.w3.org/2000/svg">
<path fill-rule="evenodd" clip-rule="evenodd" d="M15.3714 21.6396C14.3218 21.6396 13.4681 20.7848 13.4681 19.7346C13.4681 18.6845 14.3218 17.8303 15.3714 17.8303C15.6601 17.8303 15.9333 17.8965 16.1783 18.013C16.0486 17.9709 15.9132 17.9427 15.7696 17.9427C15.0273 17.9427 14.4255 18.545 14.4255 19.2879C14.4255 20.0309 15.0273 20.6332 15.7696 20.6332C16.512 20.6332 17.1138 20.0303 17.1138 19.2879C17.1138 19.1058 17.0769 18.9323 17.0112 18.7744C17.1772 19.0568 17.274 19.3842 17.274 19.7346C17.274 20.7848 16.4204 21.6396 15.3714 21.6396V21.6396ZM26.4679 19.2879C26.4679 19.1905 26.4564 19.0972 26.4373 19.0061C26.5307 19.2309 26.5826 19.4764 26.5826 19.7346C26.5826 20.7848 25.729 21.6396 24.6799 21.6396C23.6309 21.6396 22.7767 20.7848 22.7767 19.7346C22.7767 18.6845 23.6303 17.8303 24.6799 17.8303C24.9312 17.8303 25.1704 17.8804 25.3906 17.9697C25.3042 17.9525 25.2154 17.9427 25.1238 17.9427C24.3814 17.9427 23.7796 18.545 23.7796 19.2879C23.7796 20.0309 24.3814 20.6332 25.1238 20.6332C25.8661 20.6332 26.4679 20.0303 26.4679 19.2879ZM29.2639 16.0308L28.0743 17.0147C28.0743 17.0147 28.0766 17.0176 28.0783 17.0199C28.7054 17.7813 29.0506 18.7456 29.0506 19.7346C29.0506 22.0909 27.1353 24.0079 24.7825 24.0079C23.6891 24.0079 22.6407 23.582 21.8511 22.835V21.0839C22.356 22.141 23.4326 22.8748 24.6799 22.8748C26.4097 22.8748 27.8172 21.4661 27.8172 19.7346C27.8172 18.4568 27.0494 17.3565 25.952 16.8666C25.9664 16.8596 25.9803 16.8533 25.9947 16.8464C26.6321 16.5403 27.0241 16.2631 27.0241 16.2631L32 12.1662C30.8219 11.8192 29.2316 11.6918 27.8034 11.8929C25.9174 12.1581 24.3145 12.8451 24.3145 12.8451C22.7975 12.2007 21.8637 12.0071 19.9997 11.988C18.1351 12.0071 17.2014 12.2007 15.6843 12.8451C15.6843 12.8451 14.0814 12.1581 12.1955 11.8929C10.7678 11.6918 9.17813 11.8192 8 12.1662L12.9753 16.2631C12.9753 16.2631 13.3679 16.5403 14.0048 16.8464C14.0278 16.8573 14.0497 16.8677 14.0739 16.8792C12.9903 17.3749 12.2347 18.4672 12.2347 19.7346C12.2347 21.4661 13.6416 22.8748 15.3719 22.8748C16.5581 22.8748 17.5927 22.2119 18.1253 21.2367V18.232C18.127 18.236 18.1299 18.2395 18.1317 18.243C18.1305 18.2268 18.1265 18.2107 18.1265 18.1945C18.1265 18.1905 18.1253 18.1876 18.1253 18.1836C18.1253 17.6654 18.5449 17.2452 19.0631 17.2452C19.5813 17.2452 20.0009 17.6654 20.0009 18.1836C20.0009 18.1876 19.9997 18.1905 19.9997 18.1945H20.0009V25.4754L18.1881 23.6898L17.8342 23.3255C17.2446 23.899 16.5501 24.0079 15.4757 24.0079C13.1217 24.0079 11.207 22.0909 11.207 19.7346C11.207 18.5796 11.4243 17.8401 12.0485 17.1444L10.864 16.1559C10.0404 17.1196 9.66402 18.2378 9.66402 19.7346C9.66402 22.9428 12.271 25.5521 15.4757 25.5521C15.9645 25.5521 16.4861 25.5348 17.0066 25.4258C17.7835 26.1302 20.104 28.2028 20.104 28.2028L23.2736 25.3428C23.7623 25.4754 24.269 25.5515 24.7837 25.5515C27.9878 25.5515 30.5948 22.9416 30.5948 19.7341C30.5948 18.3859 30.1233 17.0723 29.2674 16.0343C29.2668 16.0331 29.2656 16.0314 29.2651 16.0302" fill="#003057"/>
</svg>
